<?xml version="1.0" encoding="UTF-8"?>
<!DOCTYPE svg PUBLIC "-//W3C//DTD SVG 1.1//EN" "http://www.w3.org/Graphics/SVG/1.1/DTD/svg11.dtd">
<!-- Creator: CorelDRAW 2017 -->
<svg xmlns="http://www.w3.org/2000/svg" xml:space="preserve" width="7.22172in" height="1.1325in" version="1.1" style="shape-rendering:geometricPrecision; text-rendering:geometricPrecision; image-rendering:optimizeQuality; fill-rule:evenodd; clip-rule:evenodd"
viewBox="0 0 7243.41 1135.9"
 xmlns:xlink="http://www.w3.org/1999/xlink">
 <defs>
  <style type="text/css">
   <![CDATA[
    .fil0 {fill:black;fill-rule:nonzero}
   ]]>
  </style>
 </defs>
 <g id="Layer_x0020_1">
  <metadata id="CorelCorpID_0Corel-Layer"/>
  <polygon class="fil0" points="6191.94,1135.9 5982.27,1135.9 5611.77,235.92 5246.03,1135.9 5036.36,1135.9 5512.89,1.35 5708.26,1.35 "/>
  <polygon class="fil0" points="2364.21,1135.9 2154.54,1135.9 1784.04,235.92 1418.3,1135.9 1208.63,1135.9 1685.16,1.35 1880.54,1.35 "/>
  <polygon class="fil0" points="6703.95,1135.9 6703.95,171.34 6356.76,171.34 6356.76,1.35 7243.41,1.35 7243.41,171.34 6896.19,171.34 6896.19,1135.9 "/>
  <polygon class="fil0" points="2600.1,0 2809.77,0 3180.27,899.98 3546.01,0 3755.68,0 3279.15,1134.55 3083.77,1134.55 "/>
  <path class="fil0" d="M926.82 288.89c-50.33,-42.35 -103.72,-74.11 -159.67,-95.29 -56.2,-21.17 -115.21,-31.76 -177.03,-31.76 -119.56,0 -216.89,37.81 -292,113.69 -75.11,75.88 -112.66,173.94 -112.66,294.69 0,116.47 36.53,212.76 109.59,288.64 73.06,75.88 165.29,113.69 276.41,113.69 64.89,0 126.45,-11.34 185.21,-34.03 58.5,-22.69 114.7,-56.72 168.6,-102.6l0 198.64c-47.77,34.03 -99.89,59.49 -156.34,76.13 -56.46,16.89 -117.51,25.21 -183.17,25.21 -83.79,0 -161.2,-13.61 -232.22,-40.59 -71.28,-27.22 -133.61,-67.06 -187.51,-119.74 -53.39,-51.68 -94.27,-112.68 -123.13,-182.76 -28.61,-70.08 -42.92,-144.95 -42.92,-224.1 0,-79.41 14.31,-153.77 42.92,-223.35 28.87,-69.83 70.25,-130.84 124.66,-183.52 54.41,-53.19 116.75,-93.52 187,-120.75 70.25,-27.48 146.38,-41.09 228.13,-41.09 64.37,0 125.69,9.33 183.93,27.73 58.5,18.65 114.96,46.64 169.88,84.2l-9.71 176.96z"/>
  <path class="fil0" d="M4032.67 890.29l142.04 -64.87c13.54,48.22 38.32,85.07 74.34,110.31 35.76,25.49 81.75,38.11 137.7,38.11 53.14,0 95.03,-14.64 126.45,-43.67 31.16,-29.03 46.75,-67.9 46.75,-116.62 0,-63.61 -53.39,-120.4 -160.43,-170.14 -15.07,-7.32 -26.57,-12.87 -34.49,-16.15 -120.83,-58.31 -201.31,-110.81 -241.42,-158.02 -40.1,-47.2 -60.29,-104.76 -60.29,-172.66 0,-88.35 30.4,-159.78 90.95,-214.56 60.54,-54.77 140.25,-82.04 238.6,-82.04 80.73,0 148.42,15.4 202.84,46.19 54.41,30.8 91.96,74.97 112.91,132.52l-138.97 71.18c-21.97,-34.07 -45.98,-59.07 -72.3,-74.72 -26.32,-15.9 -56.46,-23.73 -90.44,-23.73 -47.77,0 -86.09,12.37 -114.19,37.11 -28.36,24.48 -42.41,57.55 -42.41,98.95 0,65.12 62.08,125.96 185.98,182 9.45,4.54 16.86,8.08 22.48,10.35 108.32,49.47 182.66,97.69 223.02,144.64 40.36,47.2 60.55,106.02 60.55,176.45 0,102.48 -32.7,184.01 -98.1,244.34 -65.4,60.33 -153.79,90.62 -265.17,90.62 -93.24,0 -169.63,-21.2 -229.41,-63.61 -59.52,-42.41 -98.61,-102.99 -117,-182z"/>
 </g>
</svg>
